<svg width="1000" height="905" xmlns="http://www.w3.org/2000/svg" xmlns:svg="http://www.w3.org/2000/svg">
 <!-- Created with SVG-edit - https://github.com/SVG-Edit/svgedit-->
 <g class="layer">
  <title>Layer 1</title>
  <path d="m60.5,208.5c-0.83333,38.16667 38.33333,71.33333 39.5,114.5l4,29c0,0 18.5,11.5 47.5,-11.5c29,-23 34,-1 66,-31c32,-30 104,-15 104,-8c0,7 14,22 25,27c11,5 22,-24 25,-24c3,0 17,16 21,52c4,36 59,40 59,35c0,-5 36,16 60,-22c24,-38 27,-37 28,-36c1,1 35,-47 27,-102c-8,-55 1,23 -78,-98l-8.5,-41.5c-16.04167,1.79167 -42.08333,-16.41667 -48.125,5.375c-6.04167,21.79167 -33.41667,2.25 -50.125,3.375l-86.15625,-70.90625l-27.15625,49.09375l-67.15625,8.09375l108.42188,87.04688c7.57031,6.17448 18.14062,-7.65105 22.71093,18.52343c-6.76302,3.84115 42.25261,108.06511 -20.28906,11.52344c-62.54167,-96.54167 -250.79167,-33.79167 -251.625,4.375z" fill="none" id="svg_8" stroke="#000000" stroke-dasharray="null" stroke-linecap="null" stroke-linejoin="null" stroke-width="5"/>
 </g>
</svg>