<svg width="700" height="400" xmlns="http://www.w3.org/2000/svg">
 <!-- Created with Method Draw - http://github.com/duopixel/Method-Draw/ -->
 <g>
  <title>background</title>
  <rect fill="#fff" id="canvas_background" height="402" width="702" y="-1" x="-1"/>
  <g display="none" overflow="visible" y="0" x="0" height="100%" width="100%" id="canvasGrid">
   <rect fill="url(#gridpattern)" stroke-width="0" y="0" x="0" height="100%" width="100%"/>
  </g>
 </g>
 <g>
  <title>Layer 1</title>
  <path id="svg_3" fill-opacity="null" stroke-opacity="null" stroke-width="1.5" stroke="#ff0000" fill="#ff0000"/>
  <path id="svg_4" d="m383.666486,258.666318c-31.999814,64.66629 -28.6665,-4.66664 -29.001897,-4.667806c10.335339,-68.665102 -51.664301,-55.998508 -51.999696,-55.999672c-7.874696,-4.24983 -13.910893,-5.051781 -18.872911,-3.659753c-4.962017,1.392028 -8.849855,4.978036 -12.42783,9.504124c-7.15595,9.052176 -13.072454,21.864675 -23.864057,28.406303c-21.583207,13.083257 -62.666815,1.083035 -62.83451,1.082452c-62.330913,-37.33195 -28.331111,-86.664997 -28.666499,-86.666159c57.001725,-4.665478 64.335016,-47.998559 63.999625,-47.999719c-2.33126,-74.665073 70.334984,-35.331968 69.99959,-35.333126c30.33522,42.000914 17.001964,86.000658 16.666569,85.999496c41.001825,-9.99878 47.668453,-56.665175 47.333056,-56.666334c21.001944,1.334485 19.668618,-49.998551 19.33322,-49.999708c45.001805,2.667808 23.001933,57.334157 22.666534,57.332998" opacity="0.5" stroke-width="1.5" stroke="#7fff00" fill="none"/>
 </g>
</svg>